<mxfile host="app.diagrams.net">
  <diagram name="flow"><mxGraphModel><root><mxCell id="0"/><mxCell id="1" parent="0"/></root></mxGraphModel></diagram>
</mxfile>
